<svg width="59" height="69" viewBox="0 0 59 69" fill="none" xmlns="http://www.w3.org/2000/svg">
<path d="M29.5001 0L59.0001 16.711L59.0001 35.75H6.10352e-05L9.15527e-05 16.711L29.5001 0Z" fill="#2771EA"/>
<path d="M29.5001 0L59.0001 16.711L59.0001 35.75H6.10352e-05L9.15527e-05 16.711L29.5001 0Z" fill="white" fill-opacity="0.3"/>
<path d="M29.5001 0L59.0001 16.711L59.0001 35.75H6.10352e-05L9.15527e-05 16.711L29.5001 0Z" fill="#2771EA"/>
<path d="M29.5001 0L59.0001 16.711L59.0001 35.75H6.10352e-05L9.15527e-05 16.711L29.5001 0Z" fill="white" fill-opacity="0.3"/>
<path d="M29.5 68.75L1.46093e-06 52.039L3.36429e-05 33L59.0001 33L59 52.039L29.5 68.75Z" fill="#2771EA"/>
<path d="M29.5 68.75L1.46093e-06 52.039L3.36429e-05 33L59.0001 33L59 52.039L29.5 68.75Z" fill="white" fill-opacity="0.3"/>
<path d="M29.5 68.75L1.46093e-06 52.039L3.36429e-05 33L59.0001 33L59 52.039L29.5 68.75Z" fill="#2771EA"/>
<path d="M29.5 68.75L1.46093e-06 52.039L3.36429e-05 33L59.0001 33L59 52.039L29.5 68.75Z" fill="white" fill-opacity="0.3"/>
<path fill-rule="evenodd" clip-rule="evenodd" d="M30 20L34.6355 29.5452L45 31.085L37.5004 38.5095L39.2706 49L30 44.0447L20.7294 49L22.4996 38.5095L15 31.085L25.3645 29.5452L30 20ZM30 26.2416L27.17 32.069L20.8395 33.0095L25.4202 37.5443L24.3394 43.949L30 40.9233L35.6606 43.949L34.5798 37.5443L39.1605 33.0095L32.83 32.069L30 26.2416Z" fill="white"/>
</svg>
