<svg width="59" height="69" viewBox="0 0 59 69" fill="none" xmlns="http://www.w3.org/2000/svg">
<path d="M29.5001 0L59.0001 16.711L59.0001 35.75H6.10352e-05L9.15527e-05 16.711L29.5001 0Z" fill="currentColor"/>
<path d="M29.5001 0L59.0001 16.711L59.0001 35.75H6.10352e-05L9.15527e-05 16.711L29.5001 0Z" fill="white" fill-opacity="0.3"/>
<path d="M29.5001 0L59.0001 16.711L59.0001 35.75H6.10352e-05L9.15527e-05 16.711L29.5001 0Z" fill="currentColor"/>
<path d="M29.5001 0L59.0001 16.711L59.0001 35.75H6.10352e-05L9.15527e-05 16.711L29.5001 0Z" fill="white" fill-opacity="0.3"/>
<path d="M29.5 68.75L1.46093e-06 52.039L3.36429e-05 33L59.0001 33L59 52.039L29.5 68.75Z" fill="currentColor"/>
<path d="M29.5 68.75L1.46093e-06 52.039L3.36429e-05 33L59.0001 33L59 52.039L29.5 68.75Z" fill="white" fill-opacity="0.3"/>
<path d="M29.5 68.75L1.46093e-06 52.039L3.36429e-05 33L59.0001 33L59 52.039L29.5 68.75Z" fill="currentColor"/>
<path d="M29.5 68.75L1.46093e-06 52.039L3.36429e-05 33L59.0001 33L59 52.039L29.5 68.75Z" fill="white" fill-opacity="0.3"/>
<path d="M30 49C38.2843 49 45 42.2843 45 34C45 25.7157 38.2843 19 30 19C21.7157 19 15 25.7157 15 34C15 42.2843 21.7157 49 30 49Z" stroke="white" stroke-width="2" stroke-linecap="round" stroke-linejoin="round"/>
<path d="M33.465 28L42.075 42.91" stroke="white" stroke-width="2" stroke-linecap="round" stroke-linejoin="round"/>
<path d="M26.535 28H43.755" stroke="white" stroke-width="2" stroke-linecap="round" stroke-linejoin="round"/>
<path d="M23.07 34.0003L31.68 19.0903" stroke="white" stroke-width="2" stroke-linecap="round" stroke-linejoin="round"/>
<path d="M26.535 40.0003L17.925 25.0903" stroke="white" stroke-width="2" stroke-linecap="round" stroke-linejoin="round"/>
<path d="M33.465 40H16.245" stroke="white" stroke-width="2" stroke-linecap="round" stroke-linejoin="round"/>
<path d="M36.93 34L28.32 48.91" stroke="white" stroke-width="2" stroke-linecap="round" stroke-linejoin="round"/>
</svg>
