<svg width="59" height="69" viewBox="0 0 59 69" fill="none" xmlns="http://www.w3.org/2000/svg">
<path d="M29.5001 0L59.0001 16.711L59.0001 35.75H6.10352e-05L9.15527e-05 16.711L29.5001 0Z" fill="#8E46EA"/>
<path d="M29.5001 0L59.0001 16.711L59.0001 35.75H6.10352e-05L9.15527e-05 16.711L29.5001 0Z" fill="white" fill-opacity="0.3"/>
<path d="M29.5001 0L59.0001 16.711L59.0001 35.75H6.10352e-05L9.15527e-05 16.711L29.5001 0Z" fill="#8E46EA"/>
<path d="M29.5001 0L59.0001 16.711L59.0001 35.75H6.10352e-05L9.15527e-05 16.711L29.5001 0Z" fill="white" fill-opacity="0.3"/>
<path d="M29.5 68.75L1.46093e-06 52.039L3.36429e-05 33L59.0001 33L59 52.039L29.5 68.75Z" fill="#8E46EA"/>
<path d="M29.5 68.75L1.46093e-06 52.039L3.36429e-05 33L59.0001 33L59 52.039L29.5 68.75Z" fill="white" fill-opacity="0.3"/>
<path d="M29.5 68.75L1.46093e-06 52.039L3.36429e-05 33L59.0001 33L59 52.039L29.5 68.75Z" fill="#8E46EA"/>
<path d="M29.5 68.75L1.46093e-06 52.039L3.36429e-05 33L59.0001 33L59 52.039L29.5 68.75Z" fill="white" fill-opacity="0.3"/>
<path fill-rule="evenodd" clip-rule="evenodd" d="M30.4211 18V22.9485H36.7368V25.732H30.4211V31.6082H32.1579C33.7073 31.6082 35.1933 32.2111 36.2889 33.2841C37.3845 34.3571 38 35.8124 38 37.3299C38 38.8474 37.3845 40.3027 36.2889 41.3757C35.1933 42.4487 33.7073 43.0515 32.1579 43.0515H30.4211V48H27.5789V43.0515H20V40.268H27.5789V34.3918H25.8421C24.2927 34.3918 22.8067 33.7889 21.7111 32.7159C20.6155 31.6429 20 30.1876 20 28.6701C20 27.1526 20.6155 25.6973 21.7111 24.6243C22.8067 23.5513 24.2927 22.9485 25.8421 22.9485H27.5789V18H30.4211ZM27.5789 25.732H25.8421C25.0465 25.732 24.2834 26.0415 23.7208 26.5925C23.1582 27.1435 22.8421 27.8909 22.8421 28.6701C22.8421 29.4493 23.1582 30.1967 23.7208 30.7477C24.2834 31.2987 25.0465 31.6082 25.8421 31.6082H27.5789V25.732ZM30.4211 34.3918V40.268H32.1579C32.9535 40.268 33.7166 39.9585 34.2792 39.4075C34.8418 38.8565 35.1579 38.1091 35.1579 37.3299C35.1579 36.5507 34.8418 35.8033 34.2792 35.2523C33.7166 34.7013 32.9535 34.3918 32.1579 34.3918H30.4211Z" fill="white"/>
</svg>
