<svg width="59" height="69" viewBox="0 0 59 69" fill="none" xmlns="http://www.w3.org/2000/svg">
<path d="M29.5001 0L59.0001 16.711L59.0001 35.75H6.10352e-05L9.15527e-05 16.711L29.5001 0Z" fill="#ED1829"/>
<path d="M29.5001 0L59.0001 16.711L59.0001 35.75H6.10352e-05L9.15527e-05 16.711L29.5001 0Z" fill="white" fill-opacity="0.3"/>
<path d="M29.5001 0L59.0001 16.711L59.0001 35.75H6.10352e-05L9.15527e-05 16.711L29.5001 0Z" fill="#ED1829"/>
<path d="M29.5001 0L59.0001 16.711L59.0001 35.75H6.10352e-05L9.15527e-05 16.711L29.5001 0Z" fill="white" fill-opacity="0.3"/>
<path d="M29.5 68.75L1.46093e-06 52.039L3.36429e-05 33L59.0001 33L59 52.039L29.5 68.75Z" fill="#ED1829"/>
<path d="M29.5 68.75L1.46093e-06 52.039L3.36429e-05 33L59.0001 33L59 52.039L29.5 68.75Z" fill="white" fill-opacity="0.3"/>
<path d="M29.5 68.75L1.46093e-06 52.039L3.36429e-05 33L59.0001 33L59 52.039L29.5 68.75Z" fill="#ED1829"/>
<path d="M29.5 68.75L1.46093e-06 52.039L3.36429e-05 33L59.0001 33L59 52.039L29.5 68.75Z" fill="white" fill-opacity="0.3"/>
<path d="M30 44C35.5228 44 40 39.5228 40 34C40 28.4772 35.5228 24 30 24C24.4772 24 20 28.4772 20 34C20 39.5228 24.4772 44 30 44Z" stroke="white" stroke-width="2" stroke-linecap="round" stroke-linejoin="round"/>
<path d="M30 28V34L34 36" stroke="white" stroke-width="2" stroke-linecap="round" stroke-linejoin="round"/>
</svg>
